<svg xmlns="http://www.w3.org/2000/svg" viewBox="0 0 800 520" role="img" aria-labelledby="t d">
<title id="t">Patient Support</title><desc id="d">13+ children supported</desc>
<defs>
  <linearGradient id="bg" x1="0" y1="0" x2="1" y2="1"><stop offset="0" stop-color="#fff9f7"/><stop offset="1" stop-color="#edf3fb"/></linearGradient>
  <linearGradient id="orb" x1="0" y1="0" x2="1" y2="1"><stop offset="0" stop-color="#bb0a0a"/><stop offset="1" stop-color="#7f0612"/></linearGradient>
</defs>
<rect width="800" height="520" fill="url(#bg)"/>
<circle cx="680" cy="75" r="150" fill="#0d2b55" opacity=".06"/>
<circle cx="90" cy="470" r="165" fill="#b30707" opacity=".06"/>
<rect x="68" y="68" width="664" height="384" rx="34" fill="#fff" stroke="#dfe6ef" stroke-width="3"/>
<circle cx="400" cy="210" r="86" fill="url(#orb)"/>
<g transform="translate(326 136)" fill="none" stroke="#fff" stroke-width="8" stroke-linecap="round" stroke-linejoin="round"><path d="M74 105S39 85 39 59c0-14 10-23 23-23 7 0 11 3 12 8 1-5 6-8 13-8 13 0 23 9 23 23 0 26-36 46-36 46z"/><path d="M52 71h13l5-10 8 22 6-12h13"/></g>
<text x="400" y="340" text-anchor="middle" font-family="Arial, Helvetica, sans-serif" font-size="34" font-weight="700" fill="#0d2b55">Patient Support</text>
<text x="400" y="382" text-anchor="middle" font-family="Arial, Helvetica, sans-serif" font-size="20" fill="#5d6b7e">13+ children supported</text>
<text x="400" y="425" text-anchor="middle" font-family="Arial, Helvetica, sans-serif" font-size="15" letter-spacing="2" fill="#9b1c24">REPLACE WITH YOUR PHOTO</text>
</svg>